<?xml version="1.0" encoding="utf-8"?>
<!-- Generator: Adobe Illustrator 23.0.3, SVG Export Plug-In . SVG Version: 6.00 Build 0)  -->
<svg version="1.1" id="Layer_1" xmlns="http://www.w3.org/2000/svg" xmlns:xlink="http://www.w3.org/1999/xlink" x="0px" y="0px"
	 viewBox="0 0 40 40" style="enable-background:new 0 0 40 40;" xml:space="preserve">
<style type="text/css">
	.st0{fill:#007BFF;}
</style>
<path class="st0" d="M35.24,21.72c-1.19-1.19-3.12-1.19-4.31,0l-7.88,7.88V3.05C23.05,1.36,21.68,0,20,0s-3.05,1.36-3.05,3.05V29.6
	l-7.88-7.88c-1.19-1.19-3.12-1.19-4.31,0c-1.19,1.19-1.19,3.12,0,4.31l13.08,13.08c0.14,0.14,0.3,0.27,0.47,0.38
	c0.07,0.05,0.15,0.08,0.23,0.12c0.1,0.05,0.19,0.11,0.3,0.16c0.1,0.04,0.2,0.06,0.3,0.09c0.09,0.03,0.17,0.06,0.26,0.08
	C19.6,39.98,19.8,40,20,40s0.4-0.02,0.6-0.06c0.09-0.02,0.18-0.05,0.26-0.08c0.1-0.03,0.21-0.05,0.3-0.09c0.1-0.04,0.2-0.1,0.3-0.16
	c0.08-0.04,0.15-0.07,0.23-0.12c0.17-0.11,0.33-0.24,0.47-0.38l13.08-13.08C36.43,24.84,36.43,22.91,35.24,21.72z"/>
</svg>
